<svg width="46" height="40" viewBox="0 0 46 40" fill="none" xmlns="http://www.w3.org/2000/svg">
<g clip-path="url(#clip0)">
<path d="M45.9981 8.57289V20.0009H43.1234V8.57289H27.3121C26.6084 8.57289 26.032 8.61753 25.5828 8.70681C25.1336 8.79609 24.7518 8.91514 24.4374 9.06394C24.123 9.21274 23.8534 9.37642 23.6289 9.55499C23.4043 9.73355 23.1797 9.92699 22.9551 10.1353C22.7305 10.3436 22.476 10.5371 22.1915 10.7156C21.907 10.8942 21.5476 11.0653 21.1134 11.229C20.8589 11.3183 20.5744 11.3704 20.26 11.3853C19.9456 11.4001 19.6611 11.415 19.4065 11.4299H2.87664V31.429H34.4991V34.286H2.87664C2.47237 34.286 2.09806 34.2116 1.75368 34.0628C1.40931 33.914 1.10985 33.7131 0.855318 33.4601C0.600781 33.2072 0.391163 32.9021 0.226463 32.545C0.0617625 32.1879 -0.0131011 31.8159 0.00187158 31.429V2.85887C0.00187158 2.4571 0.0767353 2.0851 0.226463 1.74285C0.37619 1.4006 0.578322 1.103 0.832859 0.850035C1.0874 0.59707 1.39434 0.388747 1.75368 0.225064C2.11303 0.0613811 2.48735 -0.0130202 2.87664 0.00186003H19.4065C19.9605 0.00186003 20.4696 0.0985817 20.9338 0.292025C21.3979 0.485468 21.8396 0.753313 22.2588 1.09556C22.6781 1.43781 23.0449 1.81725 23.3593 2.2339C23.6738 2.65055 23.9657 3.08951 24.2353 3.5508C24.4299 3.89305 24.6171 4.19065 24.7967 4.44362C24.9764 4.69658 25.186 4.92723 25.4256 5.13555C25.6651 5.34387 25.9347 5.48524 26.2341 5.55964C26.5336 5.63404 26.8929 5.68612 27.3121 5.71588H43.1234C43.5276 5.71588 43.9019 5.79028 44.2463 5.93908C44.5907 6.08789 44.8901 6.28877 45.1447 6.54173C45.3992 6.7947 45.6088 7.09974 45.7735 7.45687C45.9382 7.814 46.0131 8.186 45.9981 8.57289ZM22.8428 6.63102C22.6182 6.39293 22.3861 6.06557 22.1466 5.64892C21.907 5.23227 21.645 4.81562 21.3605 4.39898C21.076 3.98233 20.7765 3.6252 20.4621 3.3276C20.1477 3.02999 19.7958 2.87375 19.4065 2.85887H2.87664V8.57289H19.4065C19.8108 8.57289 20.1552 8.50593 20.4397 8.37201C20.7241 8.23808 20.9937 8.06696 21.2482 7.85864C21.5027 7.65031 21.7498 7.43455 21.9893 7.21135C22.2289 6.98814 22.5134 6.7947 22.8428 6.63102ZM31.6243 26.5408L38.8112 19.4206L45.9981 26.5408L43.9543 28.572L40.2486 24.8891V40H37.3738V24.8891L33.6681 28.572L31.6243 26.5408Z" fill="#76DAD0"/>
</g>
<defs>
<clipPath id="clip0">
<rect width="46" height="40" fill="white"/>
</clipPath>
</defs>
</svg>
