<svg width="80" height="70" viewBox="0 0 80 70" fill="none" xmlns="http://www.w3.org/2000/svg">
<path d="M79.9967 15.0026V35.0016H74.9971V15.0026H47.4994C46.2755 15.0026 45.273 15.0807 44.4918 15.2369C43.7106 15.3932 43.0466 15.6015 42.4998 15.8619C41.953 16.1223 41.4843 16.4087 41.0937 16.7212C40.7031 17.0337 40.3125 17.3722 39.9219 17.7368C39.5313 18.1014 39.0886 18.4399 38.5939 18.7524C38.0991 19.0649 37.4742 19.3643 36.719 19.6508C36.2763 19.807 35.7816 19.8982 35.2348 19.9242C34.6879 19.9502 34.1932 19.9763 33.7505 20.0023H5.00285V55.0007H59.9984V60.0005H5.00285C4.29978 60.0005 3.64879 59.8703 3.04988 59.6099C2.45097 59.3495 1.93018 58.9979 1.48751 58.5552C1.04484 58.1125 0.680283 57.5787 0.393848 56.9537C0.107413 56.3288 -0.0227846 55.6777 0.00325494 55.0007V5.00302C0.00325494 4.29993 0.133453 3.64892 0.393848 3.04999C0.654244 2.45106 1.00578 1.93025 1.44845 1.48756C1.89112 1.04487 2.42493 0.680307 3.04988 0.393862C3.67483 0.107417 4.32582 -0.0227854 5.00285 0.00325506H33.7505C34.714 0.00325506 35.5993 0.172518 36.4065 0.511044C37.2138 0.84957 37.9819 1.3183 38.711 1.91723C39.4401 2.51616 40.0781 3.18019 40.6249 3.90932C41.1718 4.63846 41.6795 5.40665 42.1483 6.2139C42.4868 6.81283 42.8123 7.33364 43.1247 7.77633C43.4372 8.21902 43.8018 8.62265 44.2184 8.98721C44.635 9.35178 45.1037 9.59916 45.6245 9.72936C46.1453 9.85957 46.7703 9.95071 47.4994 10.0028H74.9971C75.7002 10.0028 76.3512 10.133 76.9501 10.3934C77.549 10.6538 78.0698 11.0053 78.5125 11.448C78.9552 11.8907 79.3197 12.4246 79.6061 13.0495C79.8926 13.6745 80.0228 14.3255 79.9967 15.0026ZM39.7266 11.6043C39.336 11.1876 38.9324 10.6147 38.5157 9.88561C38.0991 9.15647 37.6434 8.42734 37.1487 7.69821C36.6539 6.96908 36.1331 6.34411 35.5863 5.8233C35.0395 5.30249 34.4275 5.02906 33.7505 5.00302H5.00285V15.0026H33.7505C34.4536 15.0026 35.0525 14.8854 35.5472 14.651C36.042 14.4166 36.5107 14.1172 36.9534 13.7526C37.396 13.388 37.8257 13.0105 38.2423 12.6199C38.659 12.2292 39.1537 11.8907 39.7266 11.6043ZM54.9988 46.4464L67.4978 33.986L79.9967 46.4464L76.4423 50.0009L69.9976 43.5559V70H64.998V43.5559L58.5532 50.0009L54.9988 46.4464Z" fill="#76DAD0"/>
</svg>
